<?xml version="1.0" encoding="utf-8"?>
<!-- Generator: Adobe Illustrator 23.0.1, SVG Export Plug-In . SVG Version: 6.00 Build 0)  -->
<svg version="1.1" id="Livello_1" xmlns="http://www.w3.org/2000/svg" xmlns:xlink="http://www.w3.org/1999/xlink" x="0px" y="0px"
	 viewBox="0 0 512 512" style="enable-background:new 0 0 512 512;" xml:space="preserve">
<path d="M597.1,272.8c-11.6,11.9-30.6,12.1-42.4,0.5c-11.9-11.6-12.1-30.6-0.5-42.4c11.6-11.9,30.6-12.1,42.4-0.5
	C608.4,241.9,608.6,260.9,597.1,272.8z M-42.6,238.6c-11.9-11.6-30.9-11.3-42.4,0.5c-11.6,11.9-11.3,30.9,0.5,42.4
	c11.9,11.6,30.9,11.3,42.4-0.5S-30.8,250.2-42.6,238.6z M20.3,239.8C9.3,239.9,0.4,249,0.6,260c0.1,5.5,2.4,10.5,6,14.1
	c3.7,3.6,8.7,5.7,14.2,5.7c11-0.1,19.9-9.2,19.7-20.3C40.4,248.4,31.3,239.6,20.3,239.8z M96.7,238.8c-11,0.1-19.9,9.2-19.7,20.3
	c0.1,5.5,2.4,10.5,6,14.1c3.7,3.6,8.7,5.7,14.2,5.7c11-0.1,19.9-9.2,19.7-20.3C116.8,247.5,107.7,238.6,96.7,238.8z M419.8,235.3
	c-11,0.1-19.9,9.2-19.7,20.3c0.1,5.5,2.4,10.5,6,14.1c3.7,3.6,8.7,5.7,14.2,5.7c11-0.1,19.9-9.2,19.7-20.3
	C439.9,244,430.8,235.2,419.8,235.3z M496.9,233.6c-11,0.1-19.9,9.2-19.7,20.3c0.1,5.5,2.4,10.5,6,14.1c3.7,3.6,8.7,5.7,14.2,5.7
	c11-0.1,19.9-9.2,19.7-20.3C517,242.3,507.9,233.5,496.9,233.6z M334.5,235.1l-29.7,0l-72-70.1c-2.6-3.1-6.6-4.7-10.6-4.6
	c-9.8,0.1-16.1,10.4-11.7,19.2l32.5,56.7l-53.5,1l-18.8-18.3c-1.5-1.6-3.7-2.6-5.9-2.5c-4.4,0-8,3.7-8,8.1l0.9,65
	c0.1,4.4,3.7,8,8.1,7.9l0.9,0c2.2,0,4.1-1.2,5.5-2.9l17.9-18.3l53.2,0l-31,57.5c-4.1,8.9,2.4,19,12.2,18.9l0,0
	c4-0.1,7.3-2.4,9.8-5.6l70-71.8L335,275c11.3-0.1,22.9-9,22.7-20.3C357.6,243.5,345.7,234.9,334.5,235.1z"/>
</svg>
