<?xml version="1.0" encoding="iso-8859-1"?>
<!-- Generator: Adobe Illustrator 18.0.0, SVG Export Plug-In . SVG Version: 6.00 Build 0)  -->
<!DOCTYPE svg PUBLIC "-//W3C//DTD SVG 1.1//EN" "http://www.w3.org/Graphics/SVG/1.1/DTD/svg11.dtd">
<svg version="1.1" id="Capa_1" xmlns="http://www.w3.org/2000/svg" xmlns:xlink="http://www.w3.org/1999/xlink" x="0px" y="0px"
	 viewBox="0 0 484.423 484.423" style="enable-background:new 0 0 484.423 484.423;" xml:space="preserve">
<g id="XMLID_74_">
	<path id="XMLID_75_" d="M166.633,391.987c-3.454,8.227,0.409,17.691,8.629,21.147c2.052,0.859,4.164,1.27,6.263,1.27
		c6.31,0,12.304-3.723,14.892-9.907l36.914-87.882l-17.525-41.717L166.633,391.987z"/>
	<path id="XMLID_76_" d="M484.423,170.103c-35.62-65.624-120.806-13.275-164.818-58.913l7.872-18.756
		c3.454-8.227-0.41-17.691-8.629-21.147c-8.219-3.455-17.716,0.386-21.155,8.638l-46.584,110.923l17.511,41.717l9.812-23.347
		c44.028,45.622,129.216-6.728,164.835,58.912c-3.313-35.075-10.68-60.514-19.972-81.344
		C446.31,174.946,467.386,167.698,484.423,170.103z"/>
	<path id="XMLID_77_" d="M186.745,79.925c-3.454-8.243-12.966-12.068-21.137-8.638c-8.235,3.456-12.101,12.92-8.645,21.147
		l7.888,18.764c-4.134,4.282-8.597,7.776-13.377,10.506C105.283,148.072,32.291,110.638,0,170.103
		c17.037-2.405,38.113,4.843,61.129,16.682c-9.291,20.83-16.643,46.269-19.971,81.344c32.291-59.48,105.282-22.045,151.472-48.405
		c4.796-2.73,9.245-6.224,13.377-10.507l82,195.279c2.587,6.184,8.582,9.907,14.892,9.907c2.099,0,4.211-0.41,6.246-1.27
		c8.236-3.456,12.1-12.92,8.646-21.147L186.745,79.925z"/>
</g>
<g>
</g>
<g>
</g>
<g>
</g>
<g>
</g>
<g>
</g>
<g>
</g>
<g>
</g>
<g>
</g>
<g>
</g>
<g>
</g>
<g>
</g>
<g>
</g>
<g>
</g>
<g>
</g>
<g>
</g>
</svg>
